<svg width="96" height="12" viewBox="0 0 96 12" fill="none" xmlns="http://www.w3.org/2000/svg">
<path d="M4.13768 11.168C3.47501 11.168 2.86834 11.0467 2.31768 10.804C1.76701 10.552 1.30034 10.2113 0.917678 9.782C0.535011 9.35267 0.259678 8.872 0.0916779 8.34L1.28168 7.85C1.53368 8.522 1.90701 9.04 2.40168 9.404C2.90568 9.75867 3.49368 9.936 4.16568 9.936C4.57634 9.936 4.93568 9.87067 5.24368 9.74C5.55168 9.60933 5.78968 9.42733 5.95768 9.194C6.13501 8.95133 6.22368 8.67133 6.22368 8.354C6.22368 7.91533 6.09768 7.57 5.84568 7.318C5.60301 7.05667 5.24368 6.86067 4.76768 6.73L2.84968 6.142C2.09368 5.90867 1.51501 5.54 1.11368 5.036C0.712345 4.532 0.511678 3.95333 0.511678 3.3C0.511678 2.73067 0.647011 2.23133 0.917678 1.802C1.19768 1.36333 1.58034 1.02267 2.06568 0.78C2.56034 0.528 3.12034 0.402 3.74568 0.402C4.37101 0.402 4.93568 0.514 5.43968 0.737999C5.95301 0.961999 6.38701 1.26533 6.74168 1.648C7.09634 2.02133 7.35768 2.45067 7.52568 2.936L6.34968 3.426C6.12568 2.838 5.78968 2.39467 5.34168 2.096C4.89368 1.788 4.36634 1.634 3.75968 1.634C3.38634 1.634 3.05501 1.69933 2.76568 1.83C2.48568 1.95133 2.26634 2.13333 2.10768 2.376C1.95834 2.60933 1.88368 2.88933 1.88368 3.216C1.88368 3.59867 2.00501 3.93933 2.24768 4.238C2.49034 4.53667 2.85901 4.76533 3.35368 4.924L5.10368 5.442C5.92501 5.694 6.54568 6.05333 6.96568 6.52C7.38568 6.98667 7.59568 7.56533 7.59568 8.256C7.59568 8.82533 7.44634 9.32933 7.14768 9.768C6.85834 10.2067 6.45234 10.552 5.92968 10.804C5.41634 11.0467 4.81901 11.168 4.13768 11.168ZM13.9445 11V1.83H11.1165V0.569999H18.1165V1.83H15.3305V11H13.9445ZM21.9589 11V0.569999H25.6409C26.3316 0.569999 26.9382 0.700666 27.4609 0.962C27.9836 1.22333 28.3896 1.59667 28.6789 2.082C28.9776 2.56733 29.1269 3.13667 29.1269 3.79C29.1269 4.52733 28.9402 5.15267 28.5669 5.666C28.1936 6.17933 27.6896 6.548 27.0549 6.772L29.4769 11H27.8809L25.3329 6.478L26.2429 7.01H23.3309V11H21.9589ZM23.3309 5.75H25.6829C26.0936 5.75 26.4529 5.67067 26.7609 5.512C27.0689 5.35333 27.3069 5.12467 27.4749 4.826C27.6522 4.52733 27.7409 4.182 27.7409 3.79C27.7409 3.38867 27.6522 3.04333 27.4749 2.754C27.3069 2.45533 27.0689 2.22667 26.7609 2.068C26.4529 1.90933 26.0936 1.83 25.6829 1.83H23.3309V5.75ZM33.557 11V0.569999H40.347V1.83H34.929V5.134H40.067V6.394H34.929V9.74H40.347V11H33.557ZM43.5593 11L47.2973 0.569999H48.9213L52.6593 11H51.1893L50.3353 8.55H45.8833L45.0293 11H43.5593ZM46.3173 7.29H49.9013L47.9133 1.564H48.3053L46.3173 7.29ZM56.4935 11V0.569999H57.7535L61.6595 6.128H61.0155L64.8935 0.569999H66.1535V11H64.7675V2.306L65.2575 2.46L61.3795 7.92H61.2675L57.4315 2.46L57.8655 2.306V11H56.4935ZM70.9901 11V0.569999H72.3621V11H70.9901ZM77.2015 11V0.569999H83.8095V1.83H78.5735V5.204H83.3195V6.464H78.5735V11H77.2015ZM90.4876 11V6.226L86.8756 0.569999H88.4296L91.4536 5.316H90.8936L93.9036 0.569999H95.4576L91.8736 6.226V11H90.4876Z" fill="url(#paint0_linear_580_4332)"/>
<defs>
<linearGradient id="paint0_linear_580_4332" x1="73.2076" y1="2" x2="94.9784" y2="22.8977" gradientUnits="userSpaceOnUse">
<stop stop-color="white"/>
<stop offset="1" stop-color="#757A8C" stop-opacity="0"/>
</linearGradient>
</defs>
</svg>
